<svg xmlns="http://www.w3.org/2000/svg" viewBox="0 0 220 220"><defs><radialGradient id="f"><stop stop-color="#fff7a8"/><stop offset=".45" stop-color="#ffb020"/><stop offset="1" stop-color="#ff4d2e"/></radialGradient></defs><ellipse cx="110" cy="196" rx="54" ry="11" fill="#ff9f1c22"/><path fill="url(#f)" d="M112 16c20 38-9 48 6 71 14-14 21-32 17-51 34 30 47 63 34 92-11 25-33 42-60 42-36 0-65-28-65-64 0-30 19-54 50-83-3 24 5 44 22 60 8-32-10-52-4-67Z"/><circle cx="89" cy="98" r="8" fill="#172033"/><circle cx="132" cy="98" r="8" fill="#172033"/><path d="M94 120c10 9 22 9 32 0" fill="none" stroke="#172033" stroke-width="6" stroke-linecap="round"/><path d="M80 158c8-10 18-15 30-15s22 5 30 15l-7 32H87Z" fill="#123c69"/><text x="110" y="173" font-size="14" text-anchor="middle" fill="#fff" font-weight="800">SPARK</text><circle cx="70" cy="160" r="13" fill="#ffb020"/><circle cx="150" cy="160" r="13" fill="#ffb020"/><path d="M68 177l-7 18M152 177l7 18" stroke="#ffb020" stroke-width="10" stroke-linecap="round"/></svg>