<svg xmlns="http://www.w3.org/2000/svg" viewBox="0 0 220 220"><defs><radialGradient id="f"><stop stop-color="#fff9c4"/><stop offset=".4" stop-color="#ffc236"/><stop offset="1" stop-color="#ff4d2e"/></radialGradient></defs><ellipse cx="110" cy="199" rx="62" ry="10" fill="#ff9f1c22"/><path fill="url(#f)" d="M112 9c23 42-10 53 7 78 16-16 24-36 19-57 38 34 52 69 37 102-12 28-36 47-66 47-40 0-72-31-72-70 0-34 21-59 55-91-3 27 6 49 25 67 9-36-11-58-5-76Z"/><circle cx="89" cy="92" r="8" fill="#172033"/><circle cx="132" cy="92" r="8" fill="#172033"/><path d="M93 113c11 10 23 10 34 0" fill="none" stroke="#172033" stroke-width="6" stroke-linecap="round"/><path d="M69 151c12-13 26-19 41-19s29 6 41 19l-9 43H78Z" fill="#fff" stroke="#d7dce5" stroke-width="3"/><path d="M110 133v60M84 153h52M94 153l16 16 16-16" fill="none" stroke="#111827" stroke-width="5"/><path d="M84 163l-17 15M136 163l17 15" stroke="#ffb020" stroke-width="11" stroke-linecap="round"/><circle cx="64" cy="181" r="11" fill="#ffb020"/><circle cx="156" cy="181" r="11" fill="#ffb020"/><circle cx="110" cy="148" r="9" fill="#ff9f1c"/></svg>